<svg width="17" height="21" viewBox="0 0 17 21" fill="none" xmlns="http://www.w3.org/2000/svg">
<path d="M6.21244 12.3699C6.20813 12.3434 6.20182 12.3172 6.19352 12.2923C6.18522 12.267 6.17492 12.2429 6.16297 12.2205C6.15068 12.1977 6.13674 12.1765 6.12147 12.1574C6.04443 12.0611 5.92988 12.0167 5.82197 12.0441C5.80072 12.0495 5.77981 12.0574 5.75988 12.0678C5.73963 12.0781 5.72037 12.091 5.70244 12.106C5.68418 12.1209 5.66725 12.1383 5.65197 12.1574C5.6367 12.1765 5.62275 12.1977 5.6108 12.2205C5.59885 12.2429 5.58855 12.267 5.58025 12.2923C5.57195 12.3172 5.56564 12.3434 5.56133 12.3699C5.55701 12.3965 5.55469 12.4239 5.55469 12.4508C5.55469 12.4778 5.55701 12.5052 5.56133 12.5322C5.56564 12.5583 5.57195 12.5845 5.58025 12.6098C5.58855 12.6347 5.59885 12.6588 5.6108 12.6812C5.62275 12.704 5.6367 12.7252 5.65197 12.7443C5.66725 12.7634 5.68418 12.7808 5.70244 12.7961C5.72037 12.8111 5.73963 12.824 5.75988 12.8343C5.77981 12.8447 5.80072 12.8526 5.82197 12.858C5.84322 12.8634 5.86514 12.8659 5.88672 12.8659C5.97404 12.8659 6.05971 12.8215 6.12147 12.7443C6.13674 12.7252 6.15068 12.704 6.16297 12.6812C6.17492 12.6588 6.18522 12.6347 6.19352 12.6098C6.20182 12.5845 6.20813 12.5583 6.21244 12.5322C6.21676 12.5052 6.21875 12.4778 6.21875 12.4508C6.21875 12.4239 6.21676 12.3965 6.21244 12.3699Z" fill="white"/>
<path d="M16.668 19.5388H15.9802V15.1002V13.2801C15.9802 12.595 15.5343 12.0377 14.9863 12.0377H14.4193V9.52664V7.94377C14.4193 7.25874 13.9734 6.70139 13.4254 6.70139H12.4061V5.49636C12.6339 5.42448 12.8495 5.27768 13.0273 5.05538C13.4361 4.54447 13.5388 3.7659 13.283 3.1179L12.3718 0.810488C12.3159 0.668836 12.2005 0.579146 12.0741 0.579146C11.9477 0.579146 11.8323 0.668836 11.7764 0.810488L10.8652 3.11794C10.6093 3.76586 10.7121 4.54447 11.1208 5.05543C11.2987 5.27772 11.5143 5.42452 11.7421 5.4964V6.70143H8.83203V4.91726C9.0598 4.84537 9.27543 4.69858 9.45326 4.47628C9.86203 3.96537 9.96472 3.18679 9.70889 2.53879L8.79773 0.231343C8.74179 0.0896899 8.62637 0 8.5 0C8.37363 0 8.25821 0.0896899 8.20227 0.231343L7.29111 2.53884C7.03528 3.18679 7.13801 3.96537 7.54674 4.47628C7.72457 4.69858 7.9402 4.84537 8.16797 4.91726V6.70143H5.25795V5.49769C5.49103 5.42423 5.70479 5.2734 5.87918 5.05543C6.28794 4.54451 6.39067 3.7659 6.13481 3.11794L5.22365 0.810488C5.1677 0.668836 5.05229 0.579146 4.92592 0.579146C4.79954 0.579146 4.68413 0.668836 4.62818 0.810488L3.71702 3.11798C3.46119 3.7659 3.56392 4.54451 3.97265 5.05547C4.14704 5.27345 4.3608 5.42427 4.59388 5.49773V6.70147H3.57462C3.02656 6.70147 2.58071 7.25879 2.58071 7.94385V9.52681V12.0378H2.0137C1.46565 12.0378 1.0198 12.5951 1.0198 13.2802V15.1003V19.5389H0.332031C0.14865 19.5389 0 19.7247 0 19.954C0 20.1832 0.14865 20.369 0.332031 20.369H1.35183H15.6482H16.668C16.8513 20.369 17 20.1832 17 19.954C17 19.7247 16.8513 19.5388 16.668 19.5388ZM11.5904 4.46839C11.383 4.20916 11.3309 3.81408 11.4607 3.48529L12.0741 1.93184L12.6875 3.48529C12.8174 3.81408 12.7652 4.20916 12.5579 4.46839C12.5118 4.52596 12.4605 4.5729 12.4062 4.61059C12.2003 4.75344 11.948 4.75344 11.7421 4.61059C11.6877 4.57294 11.6364 4.526 11.5904 4.46839ZM8.0163 3.88929C7.80891 3.63006 7.75678 3.23498 7.88661 2.90619L8.5 1.35278L9.11343 2.90623C9.24325 3.23502 9.19112 3.6301 8.98374 3.88933C8.93768 3.9469 8.88638 3.99384 8.83206 4.03152C8.62621 4.17438 8.37389 4.17438 8.168 4.03152C8.11365 3.9938 8.06235 3.9469 8.0163 3.88929ZM4.44221 4.46839C4.23479 4.20916 4.1827 3.81408 4.31252 3.48529L4.92595 1.93184L5.53938 3.48529C5.6692 3.81404 5.61707 4.20912 5.40969 4.46839C5.36363 4.52596 5.31233 4.5729 5.25801 4.61059C5.05215 4.75344 4.79984 4.75344 4.59395 4.61059C4.53956 4.57294 4.48827 4.526 4.44221 4.46839ZM3.57462 7.53147H13.4254C13.6073 7.53147 13.7553 7.71641 13.7553 7.94377V9.24682C13.609 9.30426 13.4513 9.3307 13.2653 9.3307C12.7702 9.3307 12.5442 9.1424 12.2581 8.904C11.9396 8.63862 11.5787 8.33789 10.8825 8.33789C10.1863 8.33789 9.82537 8.63862 9.50695 8.904C9.22087 9.1424 8.99493 9.3307 8.49977 9.3307C8.00461 9.3307 7.77866 9.1424 7.49262 8.904C7.1742 8.63867 6.81331 8.33789 6.11711 8.33789C5.42094 8.33789 5.06006 8.63867 4.74164 8.904C4.45559 9.1424 4.22965 9.3307 3.73455 9.3307C3.54862 9.3307 3.39107 9.30422 3.24481 9.24686V7.94377H3.24478C3.24478 7.71641 3.39276 7.53147 3.57462 7.53147ZM15.3161 19.5388H1.68386V15.5499C1.96616 15.6148 2.14598 15.7644 2.35898 15.9419C2.6774 16.2073 3.03829 16.5081 3.73452 16.5081C4.43069 16.5081 4.79158 16.2073 5.10999 15.9419C5.39604 15.7035 5.62199 15.5152 6.11708 15.5152C6.6122 15.5152 6.83818 15.7035 7.12423 15.9419C7.44265 16.2073 7.80353 16.5081 8.49973 16.5081C9.19597 16.5081 9.55686 16.2073 9.87527 15.9419C10.1614 15.7035 10.3873 15.5152 10.8825 15.5152C11.3776 15.5152 11.6036 15.7035 11.8897 15.9419C12.2082 16.2073 12.569 16.5081 13.2653 16.5081C13.9615 16.5081 14.3225 16.2073 14.6409 15.9419C14.8539 15.7644 15.0338 15.6148 15.3161 15.5499V19.5388ZM15.3161 14.7103C14.8286 14.7879 14.536 15.0317 14.2726 15.2512C13.9865 15.4896 13.7605 15.6779 13.2653 15.6779C12.7701 15.6779 12.5442 15.4896 12.2581 15.2512C11.9396 14.9859 11.5787 14.6851 10.8825 14.6851C10.1863 14.6851 9.82534 14.9859 9.50692 15.2512C9.22084 15.4896 8.99489 15.6779 8.49973 15.6779C8.00458 15.6779 7.77863 15.4896 7.49258 15.2512C7.17417 14.9859 6.81328 14.6851 6.11704 14.6851C5.42088 14.6851 5.05999 14.9859 4.74157 15.2512C4.45553 15.4896 4.22958 15.6779 3.73449 15.6779C3.23933 15.6779 3.01338 15.4896 2.72734 15.2512C2.46387 15.0317 2.17135 14.7879 1.68386 14.7103V13.28C1.68386 13.0527 1.83185 12.8677 2.0137 12.8677H4.56188C4.74526 12.8677 4.89391 12.6819 4.89391 12.4527C4.89391 12.2235 4.74526 12.0377 4.56188 12.0377H3.24478V10.1023C3.39758 10.1414 3.55901 10.1608 3.73452 10.1608C4.43069 10.1608 4.79158 9.86004 5.10999 9.59471C5.39604 9.35631 5.62199 9.16801 6.11708 9.16801C6.61224 9.16801 6.83818 9.35631 7.12423 9.59471C7.44265 9.86004 7.80353 10.1608 8.49973 10.1608C9.19594 10.1608 9.55686 9.86004 9.87527 9.59471C10.1614 9.35631 10.3873 9.16801 10.8825 9.16801C11.3776 9.16801 11.6036 9.35631 11.8897 9.59471C12.2082 9.86008 12.5691 10.1608 13.2653 10.1608C13.4409 10.1608 13.6024 10.1413 13.7552 10.1023V12.0377H7.20936C7.02598 12.0377 6.87733 12.2235 6.87733 12.4528C6.87733 12.682 7.02598 12.8678 7.20936 12.8678H14.9863C15.1682 12.8678 15.3161 13.0528 15.3161 13.2801V14.7103Z" fill="white"/>
<path d="M3.23848 18.5094C3.23416 18.4828 3.22785 18.4567 3.21955 18.4318C3.21125 18.4069 3.20096 18.3828 3.189 18.36C3.17672 18.3376 3.16311 18.3164 3.1475 18.2969C3.13223 18.2778 3.11529 18.2608 3.09703 18.2454C3.0791 18.2305 3.05984 18.2176 3.03992 18.2073C3.02 18.1969 2.99908 18.189 2.97783 18.1836C2.86992 18.1566 2.75537 18.2006 2.67801 18.2969C2.66273 18.3164 2.64879 18.3376 2.63684 18.36C2.62488 18.3828 2.61459 18.4069 2.60629 18.4318C2.59799 18.4567 2.59168 18.4828 2.58736 18.5094C2.58305 18.5364 2.58105 18.5634 2.58105 18.5908C2.58105 18.6177 2.58305 18.6447 2.58736 18.6717C2.59168 18.6982 2.59799 18.7244 2.60629 18.7493C2.61459 18.7742 2.62488 18.7983 2.63684 18.8211C2.64879 18.8435 2.66273 18.8647 2.67801 18.8842C2.73977 18.9614 2.82543 19.0058 2.91309 19.0058C2.93467 19.0058 2.95625 19.0029 2.97783 18.9975C2.99908 18.9921 3.02 18.9842 3.03992 18.9738C3.05984 18.9634 3.0791 18.9506 3.09703 18.9356C3.11529 18.9203 3.13223 18.9033 3.1475 18.8842C3.16311 18.8647 3.17672 18.8435 3.189 18.8211C3.20096 18.7983 3.21125 18.7742 3.21955 18.7493C3.22785 18.7244 3.23416 18.6982 3.23848 18.6717C3.24279 18.6447 3.24512 18.6177 3.24512 18.5908C3.24512 18.5634 3.24279 18.5364 3.23848 18.5094Z" fill="white"/>
<path d="M6.80668 17.2646C6.80236 17.238 6.79606 17.2119 6.78775 17.187C6.77945 17.162 6.76916 17.138 6.75721 17.1151C6.74492 17.0927 6.73098 17.0712 6.7157 17.0521C6.70043 17.033 6.6835 17.0155 6.66523 17.0006C6.6473 16.9857 6.62805 16.9728 6.60813 16.9624C6.58787 16.952 6.56695 16.9442 6.54604 16.9388C6.5032 16.928 6.45904 16.928 6.41621 16.9388C6.39496 16.9442 6.37404 16.952 6.35412 16.9624C6.33387 16.9728 6.31461 16.9857 6.29668 17.0006C6.27842 17.0155 6.26148 17.033 6.24621 17.0521C6.23094 17.0712 6.21699 17.0927 6.20504 17.1151C6.19309 17.138 6.18279 17.162 6.17449 17.187C6.16619 17.2119 6.15988 17.238 6.15557 17.2646C6.15125 17.2915 6.14893 17.3185 6.14893 17.3455C6.14893 17.3729 6.15125 17.3999 6.15557 17.4268C6.15988 17.4534 6.16619 17.4796 6.17449 17.5045C6.18279 17.5294 6.19309 17.5534 6.20504 17.5763C6.21699 17.5987 6.23094 17.6203 6.24621 17.6393C6.26148 17.6584 6.27842 17.6755 6.29668 17.6908C6.31461 17.7057 6.33387 17.7186 6.35412 17.729C6.37404 17.7394 6.39496 17.7473 6.41621 17.7526C6.43746 17.758 6.45938 17.7609 6.48096 17.7609C6.50254 17.7609 6.52445 17.758 6.54604 17.7526C6.56695 17.7473 6.58787 17.7394 6.60813 17.729C6.62805 17.7186 6.6473 17.7057 6.66523 17.6908C6.6835 17.6755 6.70043 17.6584 6.7157 17.6393C6.73098 17.6203 6.74492 17.5987 6.75721 17.5763C6.76916 17.5534 6.77945 17.5294 6.78775 17.5045C6.79606 17.4796 6.80236 17.4534 6.80668 17.4268C6.811 17.3999 6.81299 17.3729 6.81299 17.3455C6.81299 17.3185 6.811 17.2915 6.80668 17.2646Z" fill="white"/>
<path d="M10.6457 18.5087C10.6414 18.4821 10.6351 18.456 10.6268 18.4311C10.6185 18.4062 10.6082 18.3821 10.5962 18.3593C10.5843 18.3369 10.5703 18.3157 10.5551 18.2962C10.5398 18.2771 10.5229 18.2601 10.5046 18.2447C10.4867 18.2298 10.4674 18.2169 10.4471 18.2066C10.4272 18.1962 10.4063 18.1883 10.3851 18.1829C10.3422 18.1721 10.2981 18.1721 10.2552 18.1829C10.2343 18.1883 10.2134 18.1962 10.1931 18.2066C10.1732 18.2169 10.154 18.2298 10.136 18.2447C10.1178 18.2601 10.1008 18.2771 10.0856 18.2962C10.0703 18.3157 10.0563 18.3369 10.0441 18.3593C10.0321 18.3821 10.0218 18.4062 10.0135 18.4311C10.0052 18.456 9.99891 18.4821 9.99459 18.5087C9.99027 18.5357 9.98828 18.5627 9.98828 18.5901C9.98828 18.617 9.99027 18.644 9.99459 18.671C9.99891 18.6976 10.0052 18.7237 10.0135 18.7486C10.0218 18.7735 10.0321 18.7976 10.0441 18.8204C10.0563 18.8428 10.0703 18.8644 10.0856 18.8835C10.1008 18.9026 10.1178 18.92 10.136 18.935C10.154 18.9499 10.1732 18.9628 10.1931 18.9732C10.2134 18.9835 10.2343 18.9914 10.2552 18.9968C10.2768 19.0022 10.2987 19.0051 10.3203 19.0051C10.4076 19.0051 10.4933 18.9607 10.5551 18.8835C10.5703 18.8644 10.5843 18.8428 10.5962 18.8204C10.6082 18.7976 10.6185 18.7735 10.6268 18.7486C10.6351 18.7237 10.6414 18.6976 10.6457 18.671C10.65 18.644 10.6523 18.617 10.6523 18.5901C10.6523 18.5627 10.65 18.5357 10.6457 18.5087Z" fill="white"/>
<path d="M14.4133 17.5158C14.409 17.4892 14.4027 17.463 14.3944 17.4381C14.3861 17.4132 14.3758 17.3887 14.3638 17.3663C14.3519 17.3439 14.3379 17.3223 14.3226 17.3032C14.2605 17.2261 14.1752 17.1816 14.0879 17.1816C14.0002 17.1816 13.9149 17.2261 13.8528 17.3032C13.8375 17.3223 13.8239 17.3439 13.8116 17.3663C13.7997 17.3887 13.7894 17.4132 13.7811 17.4381C13.7728 17.463 13.7665 17.4892 13.7622 17.5158C13.7579 17.5423 13.7559 17.5697 13.7559 17.5967C13.7559 17.6241 13.7579 17.6511 13.7622 17.678C13.7665 17.7046 13.7728 17.7307 13.7811 17.7557C13.7894 17.7806 13.7997 17.8046 13.8116 17.827C13.8239 17.8499 13.8375 17.871 13.8528 17.8905C13.8684 17.9096 13.8854 17.9267 13.9033 17.942C13.9215 17.957 13.9408 17.9698 13.9607 17.9802C13.9806 17.9906 14.0016 17.9985 14.0228 18.0039C14.0444 18.0092 14.066 18.0117 14.0879 18.0117C14.1752 18.0117 14.2609 17.9677 14.3226 17.8905C14.3379 17.871 14.3519 17.8499 14.3638 17.827C14.3758 17.8046 14.3861 17.7806 14.3944 17.7557C14.4027 17.7303 14.409 17.7046 14.4133 17.678C14.4176 17.6511 14.4199 17.6241 14.4199 17.5967C14.4199 17.5697 14.4176 17.5423 14.4133 17.5158Z" fill="white"/>
<path d="M11.1084 10.7314C11.1041 10.7052 11.0978 10.6791 11.0895 10.6537C11.0812 10.6288 11.0709 10.6048 11.059 10.5824C11.0467 10.5595 11.0327 10.5384 11.0175 10.5193C11.0022 10.4998 10.9853 10.4828 10.967 10.4674C10.9491 10.4525 10.9298 10.4396 10.9099 10.4292C10.8896 10.4188 10.8687 10.4109 10.8478 10.4056C10.805 10.3948 10.7608 10.3948 10.718 10.4056C10.6967 10.4109 10.6758 10.4188 10.6559 10.4292C10.6356 10.4396 10.6164 10.4525 10.5984 10.4674C10.5802 10.4828 10.5632 10.4998 10.548 10.5193C10.5327 10.5384 10.5188 10.5595 10.5068 10.5824C10.4948 10.6048 10.4846 10.6288 10.4763 10.6537C10.4679 10.6791 10.4616 10.7052 10.4573 10.7314C10.453 10.7583 10.4507 10.7857 10.4507 10.8127C10.4507 10.8397 10.453 10.8671 10.4573 10.8936C10.4616 10.9202 10.4679 10.9463 10.4763 10.9713C10.4846 10.9962 10.4948 11.0206 10.5068 11.0431C10.5188 11.0659 10.5327 11.087 10.548 11.1061C10.5632 11.1252 10.5802 11.1427 10.5984 11.1576C10.6164 11.1725 10.6356 11.1854 10.6559 11.1958C10.6758 11.2062 10.6967 11.2141 10.718 11.2194C10.7392 11.2248 10.7611 11.2277 10.7827 11.2277C10.8043 11.2277 10.8262 11.2248 10.8478 11.2194C10.8687 11.2141 10.8896 11.2062 10.9099 11.1958C10.9298 11.1854 10.9491 11.1725 10.967 11.1576C10.9853 11.1427 11.0022 11.1252 11.0175 11.1061C11.0327 11.087 11.0467 11.0659 11.059 11.0431C11.0709 11.0206 11.0812 10.9962 11.0895 10.9713C11.0978 10.9463 11.1041 10.9202 11.1084 10.8936C11.1128 10.8671 11.1147 10.8397 11.1147 10.8127C11.1147 10.7857 11.1128 10.7583 11.1084 10.7314Z" fill="white"/>
<path d="M6.77363 10.1669C6.76932 10.1403 6.76301 10.1142 6.75471 10.0893C6.74641 10.0644 6.73611 10.0403 6.72416 10.0175C6.71221 9.99508 6.69826 9.97349 6.68299 9.9544C6.66772 9.93531 6.65045 9.91788 6.63252 9.90294C6.61426 9.888 6.595 9.87513 6.57508 9.86476C6.55516 9.85438 6.53424 9.8465 6.51299 9.8411C6.47016 9.83031 6.426 9.83031 6.38316 9.8411C6.36191 9.8465 6.341 9.85438 6.32107 9.86476C6.30115 9.87513 6.28189 9.888 6.26363 9.90294C6.2457 9.91788 6.22877 9.93531 6.21316 9.9544C6.19789 9.97349 6.18428 9.99508 6.17199 10.0175C6.16004 10.0403 6.14975 10.0644 6.14145 10.0893C6.13314 10.1142 6.12684 10.1403 6.12252 10.1669C6.1182 10.1939 6.11621 10.2209 6.11621 10.2482C6.11621 10.2752 6.1182 10.3022 6.12252 10.3292C6.12684 10.3557 6.13314 10.3819 6.14145 10.4068C6.14975 10.4317 6.16004 10.4558 6.17199 10.4786C6.18428 10.501 6.19789 10.5222 6.21316 10.5417C6.22877 10.5608 6.2457 10.5778 6.26363 10.5931C6.28189 10.6081 6.30115 10.6209 6.32107 10.6313C6.341 10.6417 6.36191 10.6496 6.38316 10.655C6.40475 10.6604 6.42633 10.6633 6.44824 10.6633C6.46982 10.6633 6.49174 10.6604 6.51299 10.655C6.53424 10.6496 6.55516 10.6417 6.57508 10.6313C6.595 10.6209 6.61426 10.6081 6.63252 10.5931C6.65045 10.5778 6.66772 10.5608 6.68299 10.5417C6.69826 10.5222 6.71188 10.501 6.72416 10.4786C6.73611 10.4558 6.74641 10.4317 6.75471 10.4068C6.76301 10.3819 6.76932 10.3557 6.77363 10.3292C6.77795 10.3022 6.77994 10.2752 6.77994 10.2482C6.77994 10.2208 6.77795 10.1938 6.77363 10.1669Z" fill="white"/>
</svg>
