<svg width="29" height="28" viewBox="0 0 29 28" fill="none" xmlns="http://www.w3.org/2000/svg">
<path d="M26.5627 17.5238L21.3609 15.2145C20.0933 14.6509 18.6036 15.0118 17.7342 16.0927L15.304 19.1167C12.9805 17.5985 10.9965 15.6127 9.47823 13.2856L12.5093 10.8714C13.592 10.0038 13.9547 8.51225 13.3929 7.24469L11.0818 2.03936C10.472 0.666912 8.97512 -0.0548658 7.51912 0.320245L3.11734 1.46336C1.61334 1.85447 0.640898 3.31225 0.854232 4.85358C2.51468 16.674 11.928 26.0891 23.752 27.7496C23.8942 27.7691 24.0329 27.778 24.1716 27.778C25.5476 27.778 26.7813 26.85 27.1387 25.4847L28.28 21.0829C28.6551 19.6305 27.9333 18.1336 26.5627 17.5238Z" fill="#F2F2F7"/>
</svg>
