<svg width="23" height="23" viewBox="0 0 23 23" fill="none" xmlns="http://www.w3.org/2000/svg">
<path d="M12.3333 18.6693C12.3333 17.0146 13.68 15.6693 15.3333 15.6693H15.6667V15.3359C15.6667 13.6813 17.0133 12.3359 18.6667 12.3359C19.784 12.3359 20.7493 12.9573 21.2653 13.8653C21.52 12.9519 21.6667 11.9959 21.6667 11.0026C21.6667 5.12127 16.8813 0.335938 11 0.335938C5.11868 0.335938 0.333344 5.12127 0.333344 11.0026C0.333344 12.8653 0.82801 14.7066 1.74934 16.2973C2.06668 16.8919 1.62268 18.9666 0.626677 19.9626C0.34801 20.2413 0.258677 20.6586 0.40001 21.0266C0.54001 21.3946 0.885344 21.6466 1.27868 21.6679C1.38401 21.6733 1.49201 21.6759 1.60134 21.6759C3.12801 21.6759 4.98001 21.1333 6.18801 20.5146C7.08801 20.9719 8.04134 21.2973 9.02934 21.4839C9.67468 21.6066 10.3373 21.6679 11 21.6679C11.9933 21.6679 12.9507 21.5213 13.8627 21.2666C12.9547 20.7506 12.3333 19.7853 12.3333 18.6679V18.6693Z" fill="black"/>
<path d="M22 17.6693H19.6667V15.3359C19.6667 14.7839 19.2187 14.3359 18.6667 14.3359C18.1147 14.3359 17.6667 14.7839 17.6667 15.3359V17.6693H15.3333C14.7813 17.6693 14.3333 18.1173 14.3333 18.6693C14.3333 19.2213 14.7813 19.6693 15.3333 19.6693H17.6667V22.0026C17.6667 22.5546 18.1147 23.0026 18.6667 23.0026C19.2187 23.0026 19.6667 22.5546 19.6667 22.0026V19.6693H22C22.552 19.6693 23 19.2213 23 18.6693C23 18.1173 22.552 17.6693 22 17.6693Z" fill="black"/>
</svg>
