<svg width="19" height="19" viewBox="0 0 19 19" fill="none" xmlns="http://www.w3.org/2000/svg">
<g clip-path="url(#clip0_10565_8690)">
<path d="M16.4346 16.2613C16.171 15.9334 15.9306 15.5376 15.7143 15.0768C16.1082 14.6337 16.4736 14.1687 16.8076 13.6828C18.2214 11.6264 19 9.30681 19 7.1515C19 6.32411 18.6757 5.54826 18.0868 4.96698C17.498 4.38573 16.7178 4.07079 15.89 4.08233C15.2887 4.09012 14.7278 4.27199 14.2539 4.57822C14.2501 4.04195 14.25 3.53445 14.25 3.06946C14.25 2.24207 13.9257 1.46623 13.3368 0.884947C12.748 0.303703 11.9688 -0.00975977 11.14 0.000259766C10.2218 0.0121719 9.39773 0.433178 8.83808 1.08745C8.27313 0.422824 7.43227 0 6.49414 0C5.65354 0 4.89087 0.339402 4.33489 0.888102C3.88528 0.345934 3.20692 0 2.44922 0C1.0987 0 0 1.0987 0 2.44922V3.93359H1.48438V2.44922C1.48438 1.91722 1.91722 1.48438 2.44922 1.48438C2.98122 1.48438 3.41406 1.91722 3.41406 2.44922V14.6953H4.89844V3.08008H4.90111C4.90111 2.20021 5.61572 1.48438 6.49414 1.48438C7.37256 1.48438 8.08717 2.20021 8.08717 3.08041L8.09252 14.693L9.57689 14.6923L9.57155 3.10413H9.57422C9.57422 2.22241 10.2853 1.49584 11.1592 1.48449C11.5874 1.47836 11.99 1.64116 12.294 1.9413C12.5981 2.24155 12.7656 2.64219 12.7656 3.06946V7.16211C12.8437 9.13195 13.0836 11.2549 13.4986 13.0732C13.637 13.6798 13.7954 14.2353 13.9749 14.7432C12.8313 15.8687 11.3998 16.8719 9.66362 17.6288L10.2568 18.9895C11.8884 18.2782 13.358 17.3303 14.613 16.1894C14.816 16.5589 15.0372 16.8923 15.2777 17.1914C16.2426 18.3915 17.495 19 19 19V17.5156C17.9523 17.5156 17.1132 17.1053 16.4346 16.2613ZM15.9092 5.56655C16.3375 5.55928 16.7399 5.72323 17.044 6.02337C17.3481 6.32359 17.5156 6.72422 17.5156 7.1515C17.5156 9.05176 16.7466 11.3682 15.1252 13.4523C15.0617 13.225 15.0018 12.9886 14.9458 12.743C14.5564 11.0366 14.385 9.03658 14.3095 7.14352C14.3331 6.29535 15.0558 5.57761 15.9092 5.56655Z" fill="white"/>
</g>
<defs>
<clipPath id="clip0_10565_8690">
<rect width="19" height="19" fill="white"/>
</clipPath>
</defs>
</svg>
