<svg width="66" height="26" viewBox="0 0 66 26" fill="none" xmlns="http://www.w3.org/2000/svg">
<rect y="1" width="66" height="21" fill="white"/>
<path d="M20 12.9072C27.1285 5.77877 38.686 5.77877 45.8144 12.9072L32.9072 25.8144L20 12.9072Z" fill="white"/>
<path d="M6.35227 8.9375V8.18182H10.8551V8.9375H9.03977V14H8.16477V8.9375H6.35227ZM12.4581 14.0966C12.1816 14.0966 11.9316 14.0455 11.7081 13.9432C11.4846 13.839 11.3075 13.6884 11.1768 13.4915C11.0481 13.2945 10.9837 13.053 10.9837 12.767C10.9837 12.5208 11.031 12.3182 11.1257 12.1591C11.2204 12 11.3482 11.8741 11.5092 11.7812C11.6702 11.6884 11.8501 11.6184 12.049 11.571C12.2479 11.5237 12.4505 11.4877 12.657 11.4631C12.9183 11.4328 13.1304 11.4081 13.2933 11.3892C13.4562 11.3684 13.5746 11.3352 13.6484 11.2898C13.7223 11.2443 13.7592 11.1705 13.7592 11.0682V11.0483C13.7592 10.8002 13.6892 10.608 13.549 10.4716C13.4107 10.3352 13.2043 10.267 12.9297 10.267C12.6437 10.267 12.4183 10.3305 12.2536 10.4574C12.0907 10.5824 11.978 10.7216 11.9155 10.875L11.1172 10.6932C11.2119 10.428 11.3501 10.214 11.532 10.0511C11.7157 9.88636 11.9268 9.76705 12.1655 9.69318C12.4041 9.61742 12.6551 9.57955 12.9183 9.57955C13.0926 9.57955 13.2772 9.60038 13.4723 9.64205C13.6693 9.68182 13.853 9.75568 14.0234 9.86364C14.1958 9.97159 14.3369 10.1259 14.4467 10.3267C14.5566 10.5256 14.6115 10.7841 14.6115 11.1023V14H13.782V13.4034H13.7479C13.6929 13.5133 13.6106 13.6212 13.5007 13.7273C13.3909 13.8333 13.2498 13.9214 13.0774 13.9915C12.9051 14.0616 12.6986 14.0966 12.4581 14.0966ZM12.6428 13.4148C12.8776 13.4148 13.0784 13.3684 13.245 13.2756C13.4136 13.1828 13.5414 13.0616 13.6286 12.9119C13.7176 12.7604 13.7621 12.5985 13.7621 12.4261V11.8636C13.7318 11.8939 13.6731 11.9223 13.5859 11.9489C13.5007 11.9735 13.4032 11.9953 13.2933 12.0142C13.1835 12.0312 13.0765 12.0473 12.9723 12.0625C12.8681 12.0758 12.781 12.0871 12.7109 12.0966C12.5462 12.1174 12.3956 12.1525 12.2592 12.2017C12.1248 12.2509 12.0168 12.322 11.9354 12.4148C11.8558 12.5057 11.8161 12.6269 11.8161 12.7784C11.8161 12.9886 11.8937 13.1477 12.049 13.2557C12.2043 13.3617 12.4022 13.4148 12.6428 13.4148ZM15.7429 15.6364V9.63636H16.5724V10.3438H16.6435C16.6927 10.2528 16.7637 10.1477 16.8565 10.0284C16.9493 9.90909 17.0781 9.80492 17.2429 9.71591C17.4077 9.625 17.6255 9.57955 17.8963 9.57955C18.2486 9.57955 18.563 9.66856 18.8395 9.84659C19.116 10.0246 19.3329 10.2812 19.4901 10.6165C19.6491 10.9517 19.7287 11.3551 19.7287 11.8267C19.7287 12.2983 19.6501 12.7027 19.4929 13.0398C19.3357 13.375 19.1198 13.6335 18.8452 13.8153C18.5705 13.9953 18.2571 14.0852 17.9048 14.0852C17.6397 14.0852 17.4228 14.0407 17.2543 13.9517C17.0876 13.8627 16.9569 13.7585 16.8622 13.6392C16.7675 13.5199 16.6946 13.4138 16.6435 13.321H16.5923V15.6364H15.7429ZM16.5753 11.8182C16.5753 12.125 16.6198 12.3939 16.7088 12.625C16.7978 12.8561 16.9266 13.0369 17.0952 13.1676C17.2637 13.2964 17.4702 13.3608 17.7145 13.3608C17.9683 13.3608 18.1804 13.2936 18.3509 13.1591C18.5213 13.0227 18.6501 12.8381 18.7372 12.6051C18.8262 12.3722 18.8707 12.1098 18.8707 11.8182C18.8707 11.5303 18.8272 11.2718 18.7401 11.0426C18.6548 10.8134 18.526 10.6326 18.3537 10.5C18.1832 10.3674 17.9702 10.3011 17.7145 10.3011C17.4683 10.3011 17.2599 10.3646 17.0895 10.4915C16.9209 10.6184 16.7931 10.7955 16.706 11.0227C16.6188 11.25 16.5753 11.5152 16.5753 11.8182ZM24.8345 9.63636V10.3182H22.451V9.63636H24.8345ZM23.0902 8.59091H23.9396V12.7188C23.9396 12.8835 23.9643 13.0076 24.0135 13.0909C24.0627 13.1723 24.1262 13.2282 24.2038 13.2585C24.2834 13.2869 24.3696 13.3011 24.4624 13.3011C24.5305 13.3011 24.5902 13.2964 24.6413 13.2869C24.6925 13.2775 24.7322 13.2699 24.7607 13.2642L24.9141 13.9659C24.8648 13.9848 24.7947 14.0038 24.7038 14.0227C24.6129 14.0436 24.4993 14.0549 24.3629 14.0568C24.1394 14.0606 23.9311 14.0208 23.7379 13.9375C23.5447 13.8542 23.3885 13.7254 23.2692 13.5511C23.1499 13.3769 23.0902 13.1581 23.0902 12.8949V8.59091ZM27.5653 14.0881C27.1563 14.0881 26.7992 13.9943 26.4943 13.8068C26.1894 13.6193 25.9527 13.357 25.7841 13.0199C25.6155 12.6828 25.5312 12.2888 25.5312 11.8381C25.5312 11.3854 25.6155 10.9896 25.7841 10.6506C25.9527 10.3116 26.1894 10.0483 26.4943 9.8608C26.7992 9.6733 27.1563 9.57955 27.5653 9.57955C27.9744 9.57955 28.3314 9.6733 28.6364 9.8608C28.9413 10.0483 29.178 10.3116 29.3466 10.6506C29.5152 10.9896 29.5994 11.3854 29.5994 11.8381C29.5994 12.2888 29.5152 12.6828 29.3466 13.0199C29.178 13.357 28.9413 13.6193 28.6364 13.8068C28.3314 13.9943 27.9744 14.0881 27.5653 14.0881ZM27.5682 13.375C27.8333 13.375 28.053 13.3049 28.2273 13.1648C28.4015 13.0246 28.5303 12.8381 28.6136 12.6051C28.6989 12.3722 28.7415 12.1155 28.7415 11.8352C28.7415 11.5568 28.6989 11.3011 28.6136 11.0682C28.5303 10.8333 28.4015 10.6449 28.2273 10.5028C28.053 10.3608 27.8333 10.2898 27.5682 10.2898C27.3011 10.2898 27.0795 10.3608 26.9034 10.5028C26.7292 10.6449 26.5994 10.8333 26.5142 11.0682C26.4309 11.3011 26.3892 11.5568 26.3892 11.8352C26.3892 12.1155 26.4309 12.3722 26.5142 12.6051C26.5994 12.8381 26.7292 13.0246 26.9034 13.1648C27.0795 13.3049 27.3011 13.375 27.5682 13.375ZM34.5028 14.0881C34.0805 14.0881 33.7169 13.9924 33.4119 13.8011C33.1089 13.608 32.8759 13.3419 32.7131 13.0028C32.5502 12.6638 32.4688 12.2756 32.4688 11.8381C32.4688 11.3949 32.5521 11.0038 32.7188 10.6648C32.8854 10.3239 33.1203 10.0578 33.4233 9.86648C33.7263 9.67519 34.0833 9.57955 34.4943 9.57955C34.8258 9.57955 35.1212 9.6411 35.3807 9.7642C35.6402 9.88542 35.8494 10.0559 36.0085 10.2756C36.1695 10.4953 36.2652 10.7519 36.2955 11.0455H35.4688C35.4233 10.8409 35.3191 10.6648 35.1562 10.517C34.9953 10.3693 34.7794 10.2955 34.5085 10.2955C34.2718 10.2955 34.0644 10.358 33.8864 10.483C33.7102 10.6061 33.5729 10.7822 33.4744 11.0114C33.3759 11.2386 33.3267 11.5076 33.3267 11.8182C33.3267 12.1364 33.375 12.411 33.4716 12.642C33.5682 12.8731 33.7045 13.0521 33.8807 13.179C34.0587 13.3059 34.268 13.3693 34.5085 13.3693C34.6695 13.3693 34.8153 13.34 34.946 13.2812C35.0786 13.2206 35.1894 13.1345 35.2784 13.0227C35.3693 12.911 35.4328 12.7765 35.4688 12.6193H36.2955C36.2652 12.9015 36.1733 13.1534 36.0199 13.375C35.8665 13.5966 35.661 13.7708 35.4034 13.8977C35.1477 14.0246 34.8475 14.0881 34.5028 14.0881ZM38.0533 11.4091V14H37.2038V8.18182H38.0419V10.3466H38.0959C38.1982 10.1117 38.3544 9.92519 38.5646 9.78693C38.7749 9.64867 39.0495 9.57955 39.3885 9.57955C39.6877 9.57955 39.9491 9.6411 40.1726 9.7642C40.398 9.88731 40.5722 10.071 40.6953 10.3153C40.8203 10.5578 40.8828 10.8608 40.8828 11.2244V14H40.0334V11.3267C40.0334 11.0066 39.951 10.7585 39.7862 10.5824C39.6214 10.4044 39.3923 10.3153 39.0987 10.3153C38.898 10.3153 38.718 10.358 38.5589 10.4432C38.4018 10.5284 38.2777 10.6534 38.1868 10.8182C38.0978 10.9811 38.0533 11.178 38.0533 11.4091ZM43.2862 14.0966C43.0097 14.0966 42.7597 14.0455 42.5362 13.9432C42.3127 13.839 42.1357 13.6884 42.005 13.4915C41.8762 13.2945 41.8118 13.053 41.8118 12.767C41.8118 12.5208 41.8591 12.3182 41.9538 12.1591C42.0485 12 42.1764 11.8741 42.3374 11.7812C42.4983 11.6884 42.6783 11.6184 42.8771 11.571C43.076 11.5237 43.2786 11.4877 43.4851 11.4631C43.7464 11.4328 43.9586 11.4081 44.1214 11.3892C44.2843 11.3684 44.4027 11.3352 44.4766 11.2898C44.5504 11.2443 44.5874 11.1705 44.5874 11.0682V11.0483C44.5874 10.8002 44.5173 10.608 44.3771 10.4716C44.2389 10.3352 44.0324 10.267 43.7578 10.267C43.4718 10.267 43.2464 10.3305 43.0817 10.4574C42.9188 10.5824 42.8061 10.7216 42.7436 10.875L41.9453 10.6932C42.04 10.428 42.1783 10.214 42.3601 10.0511C42.5438 9.88636 42.755 9.76705 42.9936 9.69318C43.2322 9.61742 43.4832 9.57955 43.7464 9.57955C43.9207 9.57955 44.1054 9.60038 44.3004 9.64205C44.4974 9.68182 44.6811 9.75568 44.8516 9.86364C45.0239 9.97159 45.165 10.1259 45.2749 10.3267C45.3847 10.5256 45.4396 10.7841 45.4396 11.1023V14H44.6101V13.4034H44.576C44.5211 13.5133 44.4387 13.6212 44.3288 13.7273C44.219 13.8333 44.0779 13.9214 43.9055 13.9915C43.7332 14.0616 43.5268 14.0966 43.2862 14.0966ZM43.4709 13.4148C43.7057 13.4148 43.9065 13.3684 44.0732 13.2756C44.2417 13.1828 44.3696 13.0616 44.4567 12.9119C44.5457 12.7604 44.5902 12.5985 44.5902 12.4261V11.8636C44.5599 11.8939 44.5012 11.9223 44.4141 11.9489C44.3288 11.9735 44.2313 11.9953 44.1214 12.0142C44.0116 12.0312 43.9046 12.0473 43.8004 12.0625C43.6963 12.0758 43.6091 12.0871 43.5391 12.0966C43.3743 12.1174 43.2237 12.1525 43.0874 12.2017C42.9529 12.2509 42.8449 12.322 42.7635 12.4148C42.6839 12.5057 42.6442 12.6269 42.6442 12.7784C42.6442 12.9886 42.7218 13.1477 42.8771 13.2557C43.0324 13.3617 43.2304 13.4148 43.4709 13.4148ZM47.4205 11.4091V14H46.571V9.63636H47.3864V10.3466H47.4403C47.5407 10.1155 47.6979 9.92992 47.9119 9.78977C48.1278 9.64962 48.3996 9.57955 48.7273 9.57955C49.0246 9.57955 49.285 9.64205 49.5085 9.76705C49.732 9.89015 49.9053 10.0739 50.0284 10.3182C50.1515 10.5625 50.2131 10.8646 50.2131 11.2244V14H49.3636V11.3267C49.3636 11.0104 49.2813 10.7633 49.1165 10.5852C48.9517 10.4053 48.7254 10.3153 48.4375 10.3153C48.2405 10.3153 48.0653 10.358 47.9119 10.4432C47.7604 10.5284 47.6402 10.6534 47.5511 10.8182C47.464 10.9811 47.4205 11.178 47.4205 11.4091ZM53.1818 15.7273C52.8352 15.7273 52.5369 15.6818 52.2869 15.5909C52.0388 15.5 51.8362 15.3797 51.679 15.2301C51.5218 15.0805 51.4044 14.9167 51.3267 14.7386L52.0568 14.4375C52.108 14.5208 52.1761 14.6089 52.2614 14.7017C52.3485 14.7964 52.4659 14.8769 52.6136 14.9432C52.7633 15.0095 52.9555 15.0426 53.1903 15.0426C53.5123 15.0426 53.7784 14.964 53.9886 14.8068C54.1989 14.6515 54.304 14.4034 54.304 14.0625V13.2045H54.25C54.1989 13.2973 54.125 13.4006 54.0284 13.5142C53.9337 13.6278 53.803 13.7263 53.6364 13.8097C53.4697 13.893 53.2528 13.9347 52.9858 13.9347C52.6411 13.9347 52.3305 13.8542 52.054 13.6932C51.7794 13.5303 51.5616 13.2907 51.4006 12.9744C51.2415 12.6562 51.1619 12.2652 51.1619 11.8011C51.1619 11.3371 51.2405 10.9394 51.3977 10.608C51.5568 10.2765 51.7746 10.0227 52.0511 9.84659C52.3277 9.66856 52.6411 9.57955 52.9915 9.57955C53.2623 9.57955 53.4811 9.625 53.6477 9.71591C53.8144 9.80492 53.9441 9.90909 54.0369 10.0284C54.1316 10.1477 54.2045 10.2528 54.2557 10.3438H54.3182V9.63636H55.1506V14.0966C55.1506 14.4716 55.0634 14.7794 54.8892 15.0199C54.715 15.2604 54.4792 15.4384 54.1818 15.554C53.8864 15.6695 53.553 15.7273 53.1818 15.7273ZM53.1733 13.2301C53.4176 13.2301 53.6241 13.1733 53.7926 13.0597C53.9631 12.9441 54.0919 12.7794 54.179 12.5653C54.268 12.3494 54.3125 12.0909 54.3125 11.7898C54.3125 11.4962 54.2689 11.2377 54.1818 11.0142C54.0947 10.7907 53.9669 10.6165 53.7983 10.4915C53.6297 10.3646 53.4214 10.3011 53.1733 10.3011C52.9176 10.3011 52.7045 10.3674 52.5341 10.5C52.3636 10.6307 52.2348 10.8087 52.1477 11.0341C52.0625 11.2595 52.0199 11.5114 52.0199 11.7898C52.0199 12.0758 52.0634 12.3267 52.1506 12.5426C52.2377 12.7585 52.3665 12.9271 52.5369 13.0483C52.7093 13.1695 52.9214 13.2301 53.1733 13.2301ZM58.1705 14.0881C57.7405 14.0881 57.3703 13.9962 57.0597 13.8125C56.7509 13.6269 56.5123 13.3665 56.3438 13.0312C56.1771 12.6941 56.0938 12.2992 56.0938 11.8466C56.0938 11.3996 56.1771 11.0057 56.3438 10.6648C56.5123 10.3239 56.7472 10.0578 57.0483 9.86648C57.3513 9.67519 57.7055 9.57955 58.1108 9.57955C58.357 9.57955 58.5956 9.62027 58.8267 9.7017C59.0578 9.78314 59.2652 9.91098 59.4489 10.0852C59.6326 10.2595 59.7775 10.4858 59.8835 10.7642C59.9896 11.0407 60.0426 11.3769 60.0426 11.7727V12.0739H56.5739V11.4375H59.2102C59.2102 11.214 59.1648 11.0161 59.0739 10.8438C58.983 10.6695 58.8551 10.5322 58.6903 10.4318C58.5275 10.3314 58.3362 10.2812 58.1165 10.2812C57.8778 10.2812 57.6695 10.34 57.4915 10.4574C57.3153 10.5729 57.179 10.7244 57.0824 10.9119C56.9877 11.0975 56.9403 11.2992 56.9403 11.517V12.0142C56.9403 12.3059 56.9915 12.554 57.0938 12.7585C57.1979 12.9631 57.3428 13.1193 57.5284 13.2273C57.714 13.3333 57.9309 13.3864 58.179 13.3864C58.34 13.3864 58.4867 13.3636 58.6193 13.3182C58.7519 13.2708 58.8665 13.2008 58.9631 13.108C59.0597 13.0152 59.1335 12.9006 59.1847 12.7642L59.9886 12.9091C59.9242 13.1458 59.8087 13.3532 59.642 13.5312C59.4773 13.7074 59.2699 13.8447 59.0199 13.9432C58.7718 14.0398 58.4886 14.0881 58.1705 14.0881Z" fill="black"/>
</svg>
